<svg width="38" height="38" viewBox="0 0 38 38" fill="none" xmlns="http://www.w3.org/2000/svg">
<g filter="url(#filter0_d_82_827)">
<path d="M19.15 30C17.05 30 15.0813 29.6 13.2437 28.8C11.4062 28 9.80625 26.9188 8.44375 25.5563C7.08125 24.1938 6 22.5938 5.2 20.7563C4.4 18.9188 4 16.95 4 14.85C4 11.2 5.1625 7.98125 7.4875 5.19375C9.8125 2.40625 12.775 0.675 16.375 0C15.925 2.475 16.0625 4.89375 16.7875 7.25625C17.5125 9.61875 18.7625 11.6875 20.5375 13.4625C22.3125 15.2375 24.3813 16.4875 26.7438 17.2125C29.1063 17.9375 31.525 18.075 34 17.625C33.35 21.225 31.625 24.1875 28.825 26.5125C26.025 28.8375 22.8 30 19.15 30ZM19.15 27C21.35 27 23.3875 26.45 25.2625 25.35C27.1375 24.25 28.6125 22.7375 29.6875 20.8125C27.5375 20.6125 25.5 20.0688 23.575 19.1813C21.65 18.2938 19.925 17.0875 18.4 15.5625C16.875 14.0375 15.6625 12.3125 14.7625 10.3875C13.8625 8.4625 13.325 6.425 13.15 4.275C11.225 5.35 9.71875 6.83125 8.63125 8.71875C7.54375 10.6062 7 12.65 7 14.85C7 18.225 8.18125 21.0938 10.5438 23.4562C12.9062 25.8188 15.775 27 19.15 27Z" fill="#CDD134"/>
</g>
<defs>
<filter id="filter0_d_82_827" x="0" y="0" width="38" height="38" filterUnits="userSpaceOnUse" color-interpolation-filters="sRGB">
<feFlood flood-opacity="0" result="BackgroundImageFix"/>
<feColorMatrix in="SourceAlpha" type="matrix" values="0 0 0 0 0 0 0 0 0 0 0 0 0 0 0 0 0 0 127 0" result="hardAlpha"/>
<feOffset dy="4"/>
<feGaussianBlur stdDeviation="2"/>
<feComposite in2="hardAlpha" operator="out"/>
<feColorMatrix type="matrix" values="0 0 0 0 0 0 0 0 0 0 0 0 0 0 0 0 0 0 0.25 0"/>
<feBlend mode="normal" in2="BackgroundImageFix" result="effect1_dropShadow_82_827"/>
<feBlend mode="normal" in="SourceGraphic" in2="effect1_dropShadow_82_827" result="shape"/>
</filter>
</defs>
</svg>
