<svg width="32" height="32" viewBox="0 0 32 32" fill="none" xmlns="http://www.w3.org/2000/svg">
<rect width="32" height="32" rx="4" fill="#60A3BC"/>
<path d="M10.376 22H4.184V11.12H6.392V20.048H10.376V22ZM11.5389 22V14H13.6829V22H11.5389ZM11.5389 12.976V10.8H13.6829V12.976H11.5389ZM17.8079 22H15.6639V14H17.7919V14.448C18.5279 14.0213 19.1572 13.808 19.6799 13.808C20.5439 13.808 21.2105 14.0587 21.6799 14.56C22.6612 14.0587 23.5572 13.808 24.3679 13.808C25.4239 13.808 26.1545 14.1173 26.5599 14.736C26.9759 15.344 27.1839 16.32 27.1839 17.664V22H25.0399V17.728C25.0399 17.0453 24.9652 16.544 24.8159 16.224C24.6665 15.8933 24.3679 15.728 23.9199 15.728C23.5785 15.728 23.1625 15.8027 22.6719 15.952L22.4319 16.032C22.4745 16.832 22.4959 17.44 22.4959 17.856V22H20.3519V17.888C20.3519 17.0987 20.2825 16.544 20.1439 16.224C20.0052 15.8933 19.7012 15.728 19.2319 15.728C18.8159 15.728 18.4052 15.8027 17.9999 15.952L17.8079 16.016V22Z" fill="white"/>
</svg>
