<svg width="125" height="29" viewBox="0 0 125 29" fill="none" xmlns="http://www.w3.org/2000/svg">
<path d="M0.72 28V-1.90735e-06H6.08V28H0.72ZM11.2613 28V8H16.6213V28H11.2613ZM11.2613 5.44V-1.90735e-06H16.6213V5.44H11.2613ZM26.9338 28H21.5738V8H26.8938V9.12C28.7338 8.05333 30.3071 7.52 31.6138 7.52C33.7738 7.52 35.4404 8.14667 36.6138 9.4C39.0671 8.14667 41.3071 7.52 43.3338 7.52C45.9738 7.52 47.8004 8.29333 48.8138 9.84C49.8538 11.36 50.3738 13.8 50.3738 17.16V28H45.0138V17.32C45.0138 15.6133 44.8271 14.36 44.4538 13.56C44.0804 12.7333 43.3338 12.32 42.2138 12.32C41.3604 12.32 40.3204 12.5067 39.0938 12.88L38.4938 13.08C38.6004 15.08 38.6538 16.6 38.6538 17.64V28H33.2938V17.72C33.2938 15.7467 33.1204 14.36 32.7738 13.56C32.4271 12.7333 31.6671 12.32 30.4938 12.32C29.4538 12.32 28.4271 12.5067 27.4138 12.88L26.9338 13.04V28Z" fill="white"/>
<path d="M54.8884 28V21.36H60.6484V28H54.8884ZM82.3628 -1.90735e-06V28H77.0428V27.16C75.1761 28.04 73.5628 28.48 72.2028 28.48C69.2961 28.48 67.2695 27.64 66.1228 25.96C64.9761 24.28 64.4028 21.6267 64.4028 18C64.4028 14.3467 65.0828 11.6933 66.4428 10.04C67.8295 8.36 69.9095 7.52 72.6828 7.52C73.5361 7.52 74.7228 7.65333 76.2428 7.92L77.0028 8.08V-1.90735e-06H82.3628ZM76.4428 23.2L77.0028 23.08V12.56C75.5361 12.2933 74.2295 12.16 73.0828 12.16C70.9228 12.16 69.8428 14.08 69.8428 17.92C69.8428 20 70.0828 21.48 70.5628 22.36C71.0428 23.24 71.8295 23.68 72.9228 23.68C74.0428 23.68 75.2161 23.52 76.4428 23.2ZM91.7159 20.28C91.7426 21.5067 92.0626 22.4 92.6759 22.96C93.3159 23.4933 94.2226 23.76 95.3959 23.76C97.8759 23.76 100.089 23.68 102.036 23.52L103.156 23.4L103.236 27.36C100.169 28.1067 97.3959 28.48 94.9159 28.48C91.9026 28.48 89.7159 27.68 88.3559 26.08C86.9959 24.48 86.3159 21.88 86.3159 18.28C86.3159 11.1067 89.2626 7.52 95.1559 7.52C100.969 7.52 103.876 10.5333 103.876 16.56L103.476 20.28H91.7159ZM98.5959 16.2C98.5959 14.6 98.3426 13.4933 97.8359 12.88C97.3293 12.24 96.4359 11.92 95.1559 11.92C93.9026 11.92 93.0093 12.2533 92.4759 12.92C91.9693 13.56 91.7026 14.6533 91.6759 16.2H98.5959ZM105.592 8H111.192L114.392 23.44H115.512L118.872 8H124.312L119.512 28H110.392L105.592 8Z" fill="#60A3BC"/>
</svg>
