<svg width="235" height="29" viewBox="0 0 235 29" fill="none" xmlns="http://www.w3.org/2000/svg">
<path d="M0.72 28V-1.90735e-06H6.08V28H0.72ZM11.2613 28V8H16.6213V28H11.2613ZM11.2613 5.44V-1.90735e-06H16.6213V5.44H11.2613ZM26.9338 28H21.5738V8H26.8938V9.12C28.7338 8.05333 30.3071 7.52 31.6138 7.52C33.7738 7.52 35.4404 8.14667 36.6138 9.4C39.0671 8.14667 41.3071 7.52 43.3338 7.52C45.9738 7.52 47.8004 8.29333 48.8138 9.84C49.8538 11.36 50.3738 13.8 50.3738 17.16V28H45.0138V17.32C45.0138 15.6133 44.8271 14.36 44.4538 13.56C44.0804 12.7333 43.3338 12.32 42.2138 12.32C41.3604 12.32 40.3204 12.5067 39.0938 12.88L38.4938 13.08C38.6004 15.08 38.6538 16.6 38.6538 17.64V28H33.2938V17.72C33.2938 15.7467 33.1204 14.36 32.7738 13.56C32.4271 12.7333 31.6671 12.32 30.4938 12.32C29.4538 12.32 28.4271 12.5067 27.4138 12.88L26.9338 13.04V28Z" fill="white"/>
<path d="M54.8884 28V21.36H60.6484V28H54.8884ZM65.8428 28V0.8H83.2028V5.6H71.3628V13.6H81.0428V18.4H71.3628V28H65.8428ZM85.9488 28V8H91.2688V10.12C93.5088 8.78667 95.6421 7.92 97.6688 7.52V12.92C95.5088 13.3733 93.6554 13.84 92.1088 14.32L91.3088 14.6V28H85.9488ZM101.912 10.28C103.325 8.44 105.685 7.52 108.992 7.52C112.298 7.52 114.658 8.44 116.072 10.28C117.485 12.0933 118.192 14.6533 118.192 17.96C118.192 24.9733 115.125 28.48 108.992 28.48C102.858 28.48 99.7916 24.9733 99.7916 17.96C99.7916 14.6533 100.498 12.0933 101.912 10.28ZM106.032 22.48C106.592 23.44 107.578 23.92 108.992 23.92C110.405 23.92 111.378 23.44 111.912 22.48C112.472 21.52 112.752 20.0133 112.752 17.96C112.752 15.9067 112.472 14.4133 111.912 13.48C111.378 12.5467 110.405 12.08 108.992 12.08C107.578 12.08 106.592 12.5467 106.032 13.48C105.498 14.4133 105.232 15.9067 105.232 17.96C105.232 20.0133 105.498 21.52 106.032 22.48ZM127.481 28H122.121V8H127.441V9.12C129.254 8.05333 130.921 7.52 132.441 7.52C135.107 7.52 136.947 8.30667 137.961 9.88C138.974 11.4533 139.481 13.88 139.481 17.16V28H134.121V17.32C134.121 15.6133 133.921 14.36 133.521 13.56C133.121 12.7333 132.321 12.32 131.121 12.32C130.027 12.32 128.974 12.5067 127.961 12.88L127.481 13.04V28ZM155.31 12.56H150.39V20.76C150.39 21.56 150.403 22.1333 150.43 22.48C150.483 22.8 150.63 23.08 150.87 23.32C151.137 23.56 151.537 23.68 152.07 23.68L155.11 23.6L155.35 27.88C153.563 28.28 152.203 28.48 151.27 28.48C148.87 28.48 147.23 27.9467 146.35 26.88C145.47 25.7867 145.03 23.7867 145.03 20.88V12.56H142.67V8H145.03V2.44H150.39V8H155.31V12.56ZM158.56 19.8V14.92H170.4V19.8H158.56ZM179.528 20.28C179.555 21.5067 179.875 22.4 180.488 22.96C181.128 23.4933 182.035 23.76 183.208 23.76C185.688 23.76 187.902 23.68 189.848 23.52L190.968 23.4L191.048 27.36C187.982 28.1067 185.208 28.48 182.728 28.48C179.715 28.48 177.528 27.68 176.168 26.08C174.808 24.48 174.128 21.88 174.128 18.28C174.128 11.1067 177.075 7.52 182.968 7.52C188.782 7.52 191.688 10.5333 191.688 16.56L191.288 20.28H179.528ZM186.408 16.2C186.408 14.6 186.155 13.4933 185.648 12.88C185.142 12.24 184.248 11.92 182.968 11.92C181.715 11.92 180.822 12.2533 180.288 12.92C179.782 13.56 179.515 14.6533 179.488 16.2H186.408ZM200.879 28H195.519V8H200.839V9.12C202.652 8.05333 204.319 7.52 205.839 7.52C208.506 7.52 210.346 8.30667 211.359 9.88C212.372 11.4533 212.879 13.88 212.879 17.16V28H207.519V17.32C207.519 15.6133 207.319 14.36 206.919 13.56C206.519 12.7333 205.719 12.32 204.519 12.32C203.426 12.32 202.372 12.5067 201.359 12.88L200.879 13.04V28ZM234.628 -1.90735e-06V28H229.308V27.16C227.442 28.04 225.828 28.48 224.468 28.48C221.562 28.48 219.535 27.64 218.388 25.96C217.242 24.28 216.668 21.6267 216.668 18C216.668 14.3467 217.348 11.6933 218.708 10.04C220.095 8.36 222.175 7.52 224.948 7.52C225.802 7.52 226.988 7.65333 228.508 7.92L229.268 8.08V-1.90735e-06H234.628ZM228.708 23.2L229.268 23.08V12.56C227.802 12.2933 226.495 12.16 225.348 12.16C223.188 12.16 222.108 14.08 222.108 17.92C222.108 20 222.348 21.48 222.828 22.36C223.308 23.24 224.095 23.68 225.188 23.68C226.308 23.68 227.482 23.52 228.708 23.2Z" fill="#60A3BC"/>
</svg>
